<?xml version="1.0" encoding="UTF-8"?>
<!DOCTYPE svg PUBLIC "-//W3C//DTD SVG 1.1//EN" "http://www.w3.org/Graphics/SVG/1.1/DTD/svg11.dtd">
<svg xmlns="http://www.w3.org/2000/svg" version="1.1" width="212px" height="237px" style="shape-rendering:geometricPrecision; text-rendering:geometricPrecision; image-rendering:optimizeQuality; fill-rule:evenodd; clip-rule:evenodd" xmlns:xlink="http://www.w3.org/1999/xlink">
<g><path style="opacity:1" fill="#fbfcfc" d="M -0.5,-0.5 C 70.1667,-0.5 140.833,-0.5 211.5,-0.5C 211.5,78.5 211.5,157.5 211.5,236.5C 197.833,236.5 184.167,236.5 170.5,236.5C 170.5,235.167 170.5,233.833 170.5,232.5C 171.268,233.263 171.768,234.263 172,235.5C 185.72,225.453 198.554,214.286 210.5,202C 199.02,195.175 191.187,185.342 187,172.5C 177.894,145.993 177.227,119.326 185,92.5C 189.916,81.4177 197.749,73.0844 208.5,67.5C 200.636,59.6421 191.469,53.6421 181,49.5C 171.218,57.3076 164.551,67.3076 161,79.5C 155.807,97.8247 154.14,116.491 156,135.5C 157.348,144.891 158.682,154.225 160,163.5C 148.22,151.38 135.553,140.38 122,130.5C 121.333,129.167 121.333,127.833 122,126.5C 132,103.833 142,81.1667 152,58.5C 156.998,48.8314 164.498,41.998 174.5,38C 164.348,24.8492 152.515,13.3492 139,3.5C 140.715,19.1645 139.048,34.4978 134,49.5C 126.411,68.6776 117.744,87.3443 108,105.5C 96.5885,83.9393 87.9218,61.2726 82,37.5C 81.3333,28.5 81.3333,19.5 82,10.5C 82.679,7.45009 83.5123,4.45009 84.5,1.5C 84.1667,1.16667 83.8333,0.833333 83.5,0.5C 67.288,8.10421 54.6213,19.6042 45.5,35C 61.1222,47.3649 71.9555,63.1983 78,82.5C 80.7209,88.9785 82.3876,95.6452 83,102.5C 60.7158,86.4404 44.5491,65.607 34.5,40C 32.4021,40.0322 30.4021,40.6989 28.5,42C 20.372,47.7939 13.2053,54.6273 7,62.5C 5.24912,64.212 4.58245,66.212 5,68.5C 27.4571,90.0627 34.7905,116.063 27,146.5C 20.5156,167.466 11.3489,187.133 -0.5,205.5C -0.5,136.833 -0.5,68.1667 -0.5,-0.5 Z"/></g>
<g><path style="opacity:1" fill="#011b42" d="M 170.5,232.5 C 169.323,210.151 161.49,190.485 147,173.5C 138.205,163.531 128.372,154.864 117.5,147.5C 116.686,149.766 116.186,152.1 116,154.5C 115.1,172.535 115.433,190.535 117,208.5C 119.899,215.784 124.399,221.951 130.5,227C 116.537,228.532 102.537,228.866 88.5,228C 83.7376,227.655 79.071,226.822 74.5,225.5C 85.0099,217.482 90.5099,206.815 91,193.5C 91.6667,172.833 91.6667,152.167 91,131.5C 80.5507,122.391 70.0507,113.225 59.5,104C 54.2907,98.9587 49.2907,93.792 44.5,88.5C 45.4214,94.6265 46.588,100.96 48,107.5C 48.6667,118.833 48.6667,130.167 48,141.5C 44.6366,161.621 40.6366,181.621 36,201.5C 35.1255,212.21 33.9588,222.876 32.5,233.5C 20.1037,226.145 9.10374,217.145 -0.5,206.5C -0.5,206.167 -0.5,205.833 -0.5,205.5C 11.3489,187.133 20.5156,167.466 27,146.5C 34.7905,116.063 27.4571,90.0627 5,68.5C 4.58245,66.212 5.24912,64.212 7,62.5C 13.2053,54.6273 20.372,47.7939 28.5,42C 30.4021,40.6989 32.4021,40.0322 34.5,40C 44.5491,65.607 60.7158,86.4404 83,102.5C 82.3876,95.6452 80.7209,88.9785 78,82.5C 71.9555,63.1983 61.1222,47.3649 45.5,35C 54.6213,19.6042 67.288,8.10421 83.5,0.5C 83.8333,0.833333 84.1667,1.16667 84.5,1.5C 83.5123,4.45009 82.679,7.45009 82,10.5C 81.3333,19.5 81.3333,28.5 82,37.5C 87.9218,61.2726 96.5885,83.9393 108,105.5C 117.744,87.3443 126.411,68.6776 134,49.5C 139.048,34.4978 140.715,19.1645 139,3.5C 152.515,13.3492 164.348,24.8492 174.5,38C 164.498,41.998 156.998,48.8314 152,58.5C 142,81.1667 132,103.833 122,126.5C 121.333,127.833 121.333,129.167 122,130.5C 135.553,140.38 148.22,151.38 160,163.5C 158.682,154.225 157.348,144.891 156,135.5C 154.14,116.491 155.807,97.8247 161,79.5C 164.551,67.3076 171.218,57.3076 181,49.5C 191.469,53.6421 200.636,59.6421 208.5,67.5C 197.749,73.0844 189.916,81.4177 185,92.5C 177.227,119.326 177.894,145.993 187,172.5C 191.187,185.342 199.02,195.175 210.5,202C 198.554,214.286 185.72,225.453 172,235.5C 171.768,234.263 171.268,233.263 170.5,232.5 Z"/></g>
<g><path style="opacity:1" fill="#fbfcfc" d="M 170.5,232.5 C 170.5,233.833 170.5,235.167 170.5,236.5C 113.5,236.5 56.5,236.5 -0.5,236.5C -0.5,226.5 -0.5,216.5 -0.5,206.5C 9.10374,217.145 20.1037,226.145 32.5,233.5C 33.9588,222.876 35.1255,212.21 36,201.5C 40.6366,181.621 44.6366,161.621 48,141.5C 48.6667,130.167 48.6667,118.833 48,107.5C 46.588,100.96 45.4214,94.6265 44.5,88.5C 49.2907,93.792 54.2907,98.9587 59.5,104C 70.0507,113.225 80.5507,122.391 91,131.5C 91.6667,152.167 91.6667,172.833 91,193.5C 90.5099,206.815 85.0099,217.482 74.5,225.5C 79.071,226.822 83.7376,227.655 88.5,228C 102.537,228.866 116.537,228.532 130.5,227C 124.399,221.951 119.899,215.784 117,208.5C 115.433,190.535 115.1,172.535 116,154.5C 116.186,152.1 116.686,149.766 117.5,147.5C 128.372,154.864 138.205,163.531 147,173.5C 161.49,190.485 169.323,210.151 170.5,232.5 Z"/></g>
</svg>
